<svg width="35" height="35" viewBox="0 0 35 35" fill="none" xmlns="http://www.w3.org/2000/svg">
<path d="M17.5 35C27.165 35 35 27.165 35 17.5C35 7.83502 27.165 0 17.5 0C7.83502 0 0 7.83502 0 17.5C0 27.165 7.83502 35 17.5 35Z" fill="#FDDB38"/>
<path d="M21.1 25.1H13.9C13.6 25.1 13.3 25.4 13.3 25.7C13.3 26 13.6 26.3 13.9 26.3H14.5V26.9C14.5 27.9 15.3 28.7 16.3 28.7H18.7C19.7 28.7 20.5 27.9 20.5 26.9V26.3H21.1C21.4 26.3 21.7 26 21.7 25.7C21.7 25.3 21.4 25.1 21.1 25.1Z" fill="#455CAA"/>
<path d="M24.1 15.1C24.1 11.5 21.1 8.5 17.5 8.5C13.9 8.5 10.9 11.5 10.9 15.1C10.9 17.1 11.9 18.4 12.8 19.7C13.6 20.7 14.3 21.7 14.4 22.9H13.8C13.5 22.9 13.2 23.2 13.2 23.5C13.2 23.8 13.5 24.1 13.8 24.1H21C21.3 24.1 21.6 23.8 21.6 23.5C21.6 23.2 21.3 22.9 21 22.9H20.4C20.6 21.6 21.3 20.7 22 19.7C23.1 18.4 24.1 17.1 24.1 15.1ZM16.3 17.4L17.5 12.6C17.6 12.3 17.9 12.1 18.2 12.2C18.5 12.3 18.7 12.6 18.6 12.9L17.4 17.7C17.3 18 17 18.2 16.7 18.1C16.4 18 16.2 17.7 16.3 17.4ZM13.4 15.5C13.2 15.3 13.2 14.9 13.4 14.6L14.6 13.4C14.8 13.2 15.2 13.2 15.5 13.4C15.7 13.6 15.7 14 15.5 14.3L14.7 15.1L15.5 15.9C15.7 16.1 15.7 16.5 15.5 16.8C15.3 17 14.9 17 14.6 16.8L13.4 15.5ZM21.5 14.7C21.7 14.9 21.7 15.3 21.5 15.6L20.3 16.8C20.1 17 19.7 17 19.4 16.8C19.2 16.6 19.2 16.2 19.4 15.9L20.2 15.1L19.4 14.3C19.2 14.1 19.2 13.7 19.4 13.4C19.6 13.2 20 13.2 20.3 13.4L21.5 14.7Z" fill="#455CAA"/>
<path d="M5.2 19.5V21H4.8V19.9H4.4V23.2H4.7V23.7H3.5V23.2H3.8V19.9H3.4V21H3V19.4H5.2V19.5Z" fill="#455CAA"/>
<path d="M5.5 23.8V23.3H5.8V20H5.5V19.5H6.8V20H6.4V23.3H6.7V23.8H5.5Z" fill="#455CAA"/>
<path d="M7.4 23.3V20H7V19.5H8.1C8.5 19.5 8.8 19.6 9 19.9C9.2 20.1 9.3 20.5 9.3 20.9C9.3 21.3 9.2 21.6 9 21.9C8.8 22.1 8.5 22.2 8 22.2V23.3H8.4V23.8H7V23.3H7.4ZM8 20V21.6C8.1 21.6 8.3 21.6 8.3 21.6C8.4 21.6 8.5 21.5 8.5 21.4C8.6 21.3 8.6 21.1 8.6 20.9C8.6 20.6 8.5 20.4 8.4 20.3C8.4 20 8.2 20 8 20Z" fill="#455CAA"/>
<path d="M9.60001 23.8V22.3H10.1V22.7C10.1 22.9 10.1 23.1 10.2 23.2C10.2 23.3 10.3 23.3 10.5 23.3C10.6 23.3 10.7 23.3 10.7 23.2C10.8 23.1 10.8 23 10.8 22.9C10.8 22.8 10.8 22.7 10.7 22.5C10.7 22.4 10.6 22.3 10.6 22.2C10.5 22.1 10.4 21.9 10.2 21.6C10 21.3 9.80001 21.1 9.70001 20.9C9.60001 20.7 9.60001 20.5 9.60001 20.3C9.60001 20 9.70001 19.8 9.80001 19.6C9.90001 19.4 10.1 19.3 10.3 19.3C10.5 19.3 10.6 19.4 10.7 19.5V19.4H11.2V20.7H10.7V20.4C10.7 20.2 10.7 20.1 10.6 20C10.6 19.9 10.5 19.9 10.4 19.9C10.2 19.9 10.1 20 10.1 20.2C10.1 20.3 10.1 20.4 10.2 20.6C10.3 20.7 10.3 20.9 10.5 21L10.8 21.3C11.2 21.8 11.4 22.3 11.4 22.7C11.4 23 11.3 23.2 11.2 23.4C11.1 23.6 10.9 23.7 10.7 23.7C10.5 23.7 10.4 23.6 10.2 23.5V23.6H9.60001V23.8Z" fill="#455CAA"/>
<path d="M24.9 22.2L25.4 22.3C25.4 22.8 25.3 23.1 25.2 23.4C25 23.7 24.8 23.8 24.5 23.8C24.2 23.8 23.9 23.6 23.7 23.3C23.5 22.9 23.5 22.4 23.5 21.7C23.5 20.2 23.8 19.4 24.4 19.4C24.6 19.4 24.8 19.5 24.9 19.7V19.5H25.4V20.9H24.9C24.9 20.6 24.9 20.4 24.8 20.2C24.7 20 24.6 20 24.5 20C24.4 20 24.3 20 24.3 20.1C24.3 20.2 24.2 20.3 24.2 20.5C24.2 20.7 24.2 21.1 24.2 21.6C24.2 22.3 24.2 22.7 24.3 23C24.3 23.2 24.4 23.3 24.6 23.3C24.7 23.3 24.8 23.2 24.9 23.1C24.9 22.9 24.9 22.6 24.9 22.2Z" fill="#455CAA"/>
<path d="M27.9 21.6C27.9 23.1 27.6 23.8 26.9 23.8C26.6 23.8 26.3 23.6 26.1 23.3C25.9 22.9 25.9 22.4 25.9 21.6C25.9 21.1 25.9 20.7 26 20.4C26.1 20.1 26.2 19.8 26.3 19.6C26.5 19.4 26.6 19.3 26.8 19.3C27.1 19.3 27.4 19.5 27.5 19.9C27.8 20.3 27.9 20.9 27.9 21.6ZM26.6 21.7C26.6 22.3 26.6 22.7 26.7 23C26.7 23.2 26.8 23.3 27 23.3C27.1 23.3 27.2 23.2 27.3 23C27.3 22.8 27.4 22.4 27.4 21.7C27.4 21 27.4 20.6 27.3 20.3C27.3 20.1 27.2 20 27 20C26.9 20 26.8 20.1 26.7 20.4C26.6 20.6 26.6 21 26.6 21.7Z" fill="#455CAA"/>
<path d="M28.4 23.8V23.3H28.7V20H28.4V19.5H29.2C29.7 19.5 30.1 19.7 30.3 20C30.5 20.4 30.6 20.9 30.6 21.6C30.6 22.3 30.5 22.9 30.3 23.2C30.1 23.6 29.7 23.7 29.2 23.7H28.4V23.8ZM29.3 20V23.3C29.5 23.3 29.7 23.2 29.8 23C29.9 22.8 29.9 22.4 29.9 21.8C29.9 21.4 29.9 21 29.8 20.8C29.8 20.6 29.7 20.4 29.6 20.3C29.6 20 29.4 20 29.3 20Z" fill="#455CAA"/>
<path d="M30.9 23.8V23.3H31.2V20H30.9V19.5H32.9V20.8H32.4V20H31.9V21.3H32.3V21.8H31.9V23.2H32.4V22.4H32.9V23.7H30.9V23.8Z" fill="#455CAA"/>
<path d="M17.5 19.4C20.0405 19.4 22.1 17.3405 22.1 14.8C22.1 12.2595 20.0405 10.2 17.5 10.2C14.9595 10.2 12.9 12.2595 12.9 14.8C12.9 17.3405 14.9595 19.4 17.5 19.4Z" fill="#455CAA"/>
<path d="M18.5 12.2C18.3 12.1 18.2 12.2 18.1 12.4L16.2 16.8C16.1 17 16.2 17.1 16.4 17.2C16.6 17.3 16.7 17.2 16.8 17L18.7 12.6C18.8 12.4 18.7 12.2 18.5 12.2Z" fill="#FDDB38"/>
<path d="M15.8 13.2C15.7 13.1 15.5 13 15.4 13.2L13.8 14.5C13.6 14.6 13.6 14.9 13.8 15L15.4 16.3C15.5 16.4 15.7 16.4 15.8 16.3C15.9 16.2 15.9 16 15.8 15.9L14.5 14.9L15.8 13.9C15.9 13.5 15.9 13.3 15.8 13.2Z" fill="#FDDB38"/>
<path d="M21.1 14.4L19.5 13.1C19.4 13 19.2 13 19.1 13.1C19 13.2 19 13.4 19.1 13.5L20.4 14.5L19.1 15.5C19 15.6 18.9 15.8 19.1 15.9C19.2 16 19.4 16.1 19.5 15.9L21.1 14.6C21.3 14.8 21.3 14.5 21.1 14.4Z" fill="#FDDB38"/>
<path d="M10.1 15.9H8.00001C7.80001 15.9 7.70001 15.7 7.70001 15.6C7.70001 15.5 7.90001 15.2 8.00001 15.2H10.1C10.3 15.2 10.4 15.4 10.4 15.6C10.4 15.8 10.3 15.9 10.1 15.9Z" fill="#455CAA"/>
<path d="M10.9 12H10.8L8.79999 11.1C8.59999 11 8.49999 10.8 8.59999 10.6C8.69999 10.4 8.89999 10.3 9.09999 10.4L11.1 11.3C11.3 11.4 11.4 11.6 11.3 11.8C11.1 11.9 11 12 10.9 12Z" fill="#455CAA"/>
<path d="M13.6 9C13.5 9 13.4 9 13.3 8.9L11.9 7.2C11.8 7.1 11.8 6.8 11.9 6.7C12 6.6 12.3 6.6 12.4 6.7L13.8 8.4C13.9 8.5 13.9 8.8 13.8 8.9C13.7 9 13.6 9 13.6 9Z" fill="#455CAA"/>
<path d="M17.5 7.89998C17.3 7.89998 17.1 7.69998 17.1 7.49998V5.39998C17.1 5.19998 17.3 5.09998 17.4 5.09998C17.6 5.09998 17.7 5.29998 17.7 5.49998V7.59998C17.8 7.79998 17.7 7.89998 17.5 7.89998Z" fill="#455CAA"/>
<path d="M26.9 15.9H24.8C24.6 15.9 24.5 15.7 24.5 15.6C24.5 15.5 24.7 15.2 24.8 15.2H26.9C27.1 15.2 27.3 15.4 27.3 15.6C27.3 15.8 27.1 15.9 26.9 15.9Z" fill="#455CAA"/>
<path d="M24.1 11.9C24 11.9 23.8 11.8 23.8 11.7C23.7 11.5 23.8 11.3 24 11.2L26 10.3C26.2 10.2 26.4 10.3 26.5 10.5C26.6 10.7 26.5 10.9 26.3 11L24.3 11.9C24.2 11.8 24.2 11.9 24.1 11.9Z" fill="#455CAA"/>
<path d="M21.2 9C21.1 9 21 9 21 8.9C20.9 8.8 20.8 8.6 21 8.4L22.4 6.7C22.5 6.6 22.7 6.5 22.9 6.7C23 6.8 23.1 7 22.9 7.2L21.5 8.9C21.4 9 21.3 9 21.2 9Z" fill="#455CAA"/>
</svg>
